<?xml version="1.0" ?><!DOCTYPE svg  PUBLIC '-//W3C//DTD SVG 1.1//EN'  'http://www.w3.org/Graphics/SVG/1.1/DTD/svg11.dtd'><svg enable-background="new 0 0 24 24" height="24px" id="Layer_1" version="1.1" viewBox="0 0 24 24" width="24px" xml:space="preserve" xmlns="http://www.w3.org/2000/svg" xmlns:xlink="http://www.w3.org/1999/xlink"><g><g><path d="M19.7,23.5H4.3c-2.1,0-3.8-1.7-3.8-3.8V4.3c0-2.1,1.7-3.8,3.8-3.8h15.3c2.1,0,3.8,1.7,3.8,3.8v15.3    C23.5,21.8,21.8,23.5,19.7,23.5z M4.3,1.5c-1.6,0-2.8,1.3-2.8,2.8v15.3c0,1.6,1.3,2.8,2.8,2.8h15.3c1.6,0,2.8-1.3,2.8-2.8V4.3    c0-1.6-1.3-2.8-2.8-2.8H4.3z"/></g><g><g><path d="M8.1,15.9c-0.3,0-0.5-0.2-0.5-0.5v-4.8c0-0.8-0.7-1.5-1.5-1.5s-1.5,0.7-1.5,1.5v4.8c0,0.3-0.2,0.5-0.5,0.5     s-0.5-0.2-0.5-0.5v-4.8c0-1.4,1.1-2.5,2.5-2.5c1.4,0,2.5,1.1,2.5,2.5v4.8C8.6,15.7,8.4,15.9,8.1,15.9z"/></g><g><path d="M4.2,13.9c-0.3,0-0.5-0.2-0.5-0.5V8.6c0-0.3,0.2-0.5,0.5-0.5s0.5,0.2,0.5,0.5v4.8C4.7,13.6,4.5,13.9,4.2,13.9z"/></g><g><path d="M12.1,15.9c-0.3,0-0.5-0.2-0.5-0.5v-4.8c0-0.8-0.7-1.5-1.5-1.5s-1.5,0.7-1.5,1.5v4.8c0,0.3-0.2,0.5-0.5,0.5     s-0.5-0.2-0.5-0.5v-4.8c0-1.4,1.1-2.5,2.5-2.5s2.5,1.1,2.5,2.5v4.8C12.6,15.7,12.3,15.9,12.1,15.9z"/></g><g><path d="M16.5,15.9c-1,0-1.9-0.4-2.7-1.1c-1.5-1.5-1.5-3.9,0-5.3c1.5-1.5,3.9-1.5,5.3,0c0.6,0.6,1,1.4,1.1,2.2     c0,0.1,0,0.3-0.1,0.4c-0.1,0.1-0.2,0.2-0.4,0.2h-3.9c-0.3,0-0.5-0.2-0.5-0.5s0.2-0.5,0.5-0.5h3.2c-0.1-0.4-0.4-0.8-0.7-1.1     c-1.1-1.1-2.8-1.1-3.9,0c-1.1,1.1-1.1,2.8,0,3.9s2.8,1.1,3.9,0c0.2-0.2,0.3-0.4,0.5-0.6c0.1-0.2,0.4-0.3,0.7-0.2     c0.2,0.1,0.3,0.4,0.2,0.7c-0.2,0.4-0.4,0.6-0.6,0.9C18.5,15.5,17.5,15.9,16.5,15.9z"/></g></g></g></svg>