<?xml version="1.0" ?><svg xmlns="http://www.w3.org/2000/svg" xmlns:xlink="http://www.w3.org/1999/xlink" version="1.1" viewBox="0 0 512 512" style="enable-background:new 0 0 512 512;" xml:space="preserve"><g id="_x30_4_x2C__spotlight_x2C__lights_x2C__entertainment_x2C__electronics_x2C__lamp_x2C__illumination"><g><path d="M458.241,39.708l-49.498,49.498c-3.905,3.905-3.905,10.237,0,14.142c3.906,3.906,10.236,3.905,14.143,0l49.498-49.498    c3.905-3.905,3.905-10.237,0-14.142C468.479,35.803,462.149,35.803,458.241,39.708z"/><path d="M501.004,65.418c-5.522,0-10,4.477-10,10v70c0,5.523,4.478,10,10,10s10-4.477,10-10v-70    C511.004,69.896,506.527,65.418,501.004,65.418z"/><path d="M366.672,21h70c5.522,0,10-4.477,10-10s-4.478-10-10-10h-70c-5.522,0-10,4.477-10,10S361.15,21,366.672,21z"/><rect x="97.512" y="359.137" transform="matrix(0.7071 -0.7071 0.7071 0.7071 -229.5266 184.1346)" width="20" height="20"/><path d="M412.143,219.884c16.042-33.599,10.11-75.15-18.006-102.884c-27.405-27.034-68.393-33.212-102.018-17.14l-46.053-46.053    c-5.059-5.058-13.684-3.322-16.356,3.357l-55.807,139.515L33.933,336.649c-13.156,13.156-15.214,33.27-6.177,48.604L12.72,400.289    c-15.633,15.634-15.633,40.937,0,56.568l42.426,42.427c15.598,15.596,40.975,15.594,56.569,0l15.036-15.036    c13.729,8.091,31.286,7.281,44.254-2.417V501c0,5.523,4.478,10,10,10h80c5.522,0,10-4.477,10-10V382.422l44.323-44.323    c23.641-9.456,124.027-49.611,139.513-55.805c6.665-2.665,8.424-11.29,3.357-16.355L412.143,219.884z M97.573,485.142    c-7.797,7.797-20.485,7.798-28.284,0l-42.426-42.427c-7.817-7.817-7.817-20.466,0-28.284l14.14-14.141l70.71,70.711    L97.573,485.142z M142.868,376.208l-28.284,28.284c-3.906,3.905-10.236,3.905-14.143,0l-28.284-28.284    c-3.905-3.905-3.905-10.237,0-14.143l28.284-28.284c3.906-3.905,10.236-3.905,14.143,0l28.284,28.284    C146.773,365.971,146.773,372.303,142.868,376.208z M380.416,131.589c19.962,19.961,25.129,48.563,16.439,73.007l-89.447-89.447    C331.861,106.456,360.464,111.636,380.416,131.589z M251.004,491h-60c0-14.095,0-115.939,0-130c0-11.028,8.972-20,20-20h20    c11.028,0,20,8.972,20,20C251.004,376.949,251.004,471.41,251.004,491z M312.112,317.845L194.159,199.892l31.944-79.86    l165.869,165.869L312.112,317.845z M412.176,277.82L234.184,99.829l8.463-21.156l190.685,190.686L412.176,277.82z"/><circle cx="221.004" cy="371" r="10"/></g></g><g id="Layer_1"/></svg>